<svg version="1.1" xmlns="http://www.w3.org/2000/svg" xmlns:xlink="http://www.w3.org/1999/xlink" x="0px" y="0px"
  viewBox="0 0 738.08 121.95" style="enable-background:new 0 0 738.08 121.95;" xml:space="preserve">
  <g>
    <g>
      <path fill="#006196" d="M69.72,121.95L39.05,68.29h61.34L69.72,121.95z"></path>
      <path fill="#2BA8E0" d="M100.38,68.3H39.04L69.7,14.64L100.38,68.3z"></path>
      <path fill="#006196" d="M78.07,0h61.34l-39.04,68.3L69.71,14.64L78.07,0z"></path>
      <path fill="#6ECFF5" d="M61.34,0l8.36,14.64L39.04,68.3L0,0H61.34z"></path>
    </g>
    <g fill="currentColor">
      <g>
        <path d="M725.71,75.34c-5.8,0-10.51,4.7-10.51,10.51c0,5.81,4.71,10.51,10.51,10.51c5.8,0,10.51-4.7,10.51-10.51
				S731.51,75.34,725.71,75.34z M725.71,94.25c-4.64,0-8.41-3.77-8.41-8.41c0-4.64,3.77-8.41,8.41-8.41c4.64,0,8.41,3.77,8.41,8.41
				C734.11,90.48,730.34,94.25,725.71,94.25z"></path>
        <path
          d="M730.1,83.83c0-1.91-1.33-3.05-3.82-3.05h-4.4V90.9h1.71v-4.01h1.34l3.25,4.01h2.1l-3.44-4.01
				C728.96,86.7,730.1,85.55,730.1,83.83z M723.6,85.55v-3.06h2.68c1.33,0,2.1,0.57,2.1,1.53c0,0.95-0.77,1.53-2.1,1.53H723.6z">
        </path>
      </g>
      <polygon points="193.8,76.54 177.45,27.65 157.19,27.65 182.16,96.02 203.47,96.02 228.31,27.65 210.01,27.65 		">
      </polygon>
      <path d="M291.93,53.53c-9.93-1.44-13.2-3.14-13.2-7.45c0-4.19,3.53-7.06,9.67-7.06c3.27,0,5.69,0.66,7.42,2.01
			c1.74,1.36,2.78,3.41,3.3,6.23h17.38c-1.7-15.69-13.07-21.17-28.23-21.17c-13.99,0-27.06,7.06-27.06,21.3
			c0,13.33,7.06,18.56,25.22,21.31c9.8,1.44,13.86,3.4,13.86,8.1c0,4.71-3.4,7.45-10.72,7.45c-4.11,0-6.93-0.88-8.81-2.53
			c-1.88-1.65-2.83-4.07-3.22-7.14h-17.65c0.66,14.77,11.37,22.88,29.8,22.88c18.04,0,28.76-7.71,28.76-22.48
			C318.47,60.33,309.06,56.02,291.93,53.53z"></path>
      <path d="M347.71,74.21l0.01-33.11h14.34V27.67h-14.34l-0.01-15.36h-18.78l0.01,15.36h-8.74V41.1h8.74l-0.01,34.8
			c0,14.22,7.69,21.52,22.04,21.52c5.08,0,8.87-0.91,11.47-1.82V80.99c-2.22,0.91-4.3,1.3-7.17,1.3
			C350.44,82.29,347.71,79.69,347.71,74.21z"></path>
      <path d="M420.44,37.8c-2.96-5.42-10.47-11.71-22.79-11.71c-18.97,0-33.74,14.3-33.74,35.6c0,19.08,12.07,35.74,33.74,35.74
			c9.48,0,18.47-3.72,22.79-11.6v10.19h17.36V27.66h-17.36V37.8z M420.84,62.95c-0.29,3.42-1.28,6.7-3.27,9.7
			c-2.98,4.65-8.09,8.47-16.47,8.47c-14.19,0-19.58-12.03-19.58-19v-0.14c0-8.61,5.96-19.54,19.45-19.54
			c9.94,0,15.33,5.33,17.88,10.52C420.41,56.11,421.12,59.53,420.84,62.95z"></path>
      <rect x="234.93" y="27.66" width="18.74" height="68.36"></rect>
      <path d="M243.16,0.05c-4.92,0.49-8.89,4.46-9.38,9.38c-0.66,6.64,4.88,12.18,11.53,11.53c4.92-0.49,8.9-4.47,9.38-9.38
			C255.34,4.94,249.81-0.6,243.16,0.05z"></path>
      <path d="M535.23,26.99h10.86v12.3c4.32-7.72,10.21-13.09,22.51-13.48v10.21c-13.74,0.65-22.51,4.97-22.51,21.85v37.56h-10.86
			V26.99z"></path>
      <path d="M576.51,10.53c0-3.93,3.27-7.2,7.2-7.2c3.93,0,7.2,3.27,7.2,7.2c0,3.93-3.27,7.2-7.2,7.2
			C579.78,17.73,576.51,14.46,576.51,10.53z M578.47,26.99h10.86v68.44h-10.86V26.99z"></path>
      <path d="M605.34,26.99h10.86v10.86c3.14-6.41,10.73-12.04,21.99-12.04c14.13,0,24.08,7.72,24.08,27.61v42.01h-10.86V52.64
			c0-12.04-5.1-17.41-16.1-17.41c-10.08,0-19.11,6.41-19.11,18.71v41.48h-10.86V26.99z"></path>
      <path d="M677.46,78.29V36.15h-9.82v-9.16h9.82V11.42h10.86v15.57h15.97v9.16h-15.97v41.09c0,6.67,3.01,9.95,8.51,9.95
			c3.4,0,6.02-0.52,8.38-1.44v9.16c-2.23,0.79-4.84,1.44-9.29,1.44C683.48,96.35,677.46,89.02,677.46,78.29z"></path>
      <path d="M467.16,26.99v10.53l0,0c6.23-7.33,14.25-11.72,24.14-11.72c21.43,0,35.29,14.88,35.29,35.58
			c0,20.51-14.41,35.06-33.65,35.06c-12.27,0-21.76-5.07-25.97-12.76l0,0l0,38.27l-10.84,0V26.99L467.16,26.99z M491.34,87.21
			c14.71,0,24.16-11.04,24.16-25.33c0-15.78-9.45-27.06-24.16-27.06c-14.71,0-24.36,11.53-24.36,27.06
			C466.98,76.35,476.62,87.21,491.34,87.21z"></path>
    </g>
  </g>
</svg>