<?xml version="1.0" encoding="utf-8"?>
<!-- Generator: Adobe Illustrator 19.2.1, SVG Export Plug-In . SVG Version: 6.00 Build 0)  -->
<svg version="1.1" id="layer" xmlns="http://www.w3.org/2000/svg" xmlns:xlink="http://www.w3.org/1999/xlink" x="0px" y="0px"
	 viewBox="0 0 652 652" style="enable-background:new 0 0 652 652;" xml:space="preserve">
<style type="text/css">
	.st0{fill:#FCB716;}
	.st1{fill:#EE363F;}
	.st2{fill:#07AF56;}
	.st3{fill:#04A9DF;}
	.st4{fill:#A1479A;}
	.st5{fill:#5A5B5B;}
</style>
<path class="st0" d="M202.4,389.3c-24.5,0-44.5,20-44.5,44.5c0,24.5,20,44.5,44.5,44.5s44.5-20,44.5-44.5
	C246.9,409.3,226.9,389.3,202.4,389.3"/>
<path class="st1" d="M78,389.3c-24.5,0-44.5,20-44.5,44.5c0,24.5,20,44.5,44.5,44.5c24.5,0,44.5-20,44.5-44.5
	C122.5,409.3,102.5,389.3,78,389.3"/>
<path class="st2" d="M326.8,389.3c-24.5,0-44.5,20-44.5,44.5c0,24.5,20,44.5,44.5,44.5c24.5,0,44.5-20,44.5-44.5
	C371.3,409.3,351.3,389.3,326.8,389.3"/>
<path class="st3" d="M575.6,389.3c-24.5,0-44.5,20-44.5,44.5c0,24.5,20,44.5,44.5,44.5s44.5-20,44.5-44.5
	C620.1,409.3,600.1,389.3,575.6,389.3"/>
<path class="st4" d="M451.2,389.3c-24.5,0-44.5,20-44.5,44.5c0,24.5,20,44.5,44.5,44.5c24.5,0,44.5-20,44.5-44.5
	C495.7,409.3,475.7,389.3,451.2,389.3"/>
<path class="st5" d="M26.8,263.2c0-28.9,23.2-50.7,51.8-50.7c28.9,0,51.8,21.6,51.8,50.5v44.4c0,4.5-3.1,7.7-7.9,7.7
	c-4.9,0-7.9-3.1-7.9-7.7v-13h-0.8c-6.1,10.4-18.3,19.4-36.3,19.4C49.7,313.9,26.8,292.3,26.8,263.2 M115.1,263.2
	c0-20.8-15.7-36.5-36.5-36.5c-20.8,0-36.5,15.7-36.5,36.5c0,20.8,15.7,36.5,36.5,36.5C99.4,299.7,115.1,284,115.1,263.2
	 M170.9,346.7c-4.1-2-6.1-5.5-4.5-9.6c1.6-4.3,5.5-6.1,9.6-4.1c7.1,3.3,15.9,5.7,25.3,5.7c23.4,0,37.5-13.9,37.5-37.7v-6.5H238
	c-6.1,10.4-18.3,19.4-36.3,19.4c-27.9,0-50.8-21.6-50.8-50.7c0-28.9,23.2-50.7,51.8-50.7c28.9,0,51.8,21.6,51.8,50.5v36.9
	c0,31.8-20.4,53.2-53.8,53.2C190.5,353.1,180.3,351.2,170.9,346.7 M239.2,263.2c0-20.8-15.7-36.5-36.5-36.5
	c-20.8,0-36.5,15.7-36.5,36.5c0,20.8,15.7,36.5,36.5,36.5C223.5,299.7,239.2,284,239.2,263.2 M274.9,263.2c0-28.9,23-50.7,51.8-50.7
	c28.9,0,51.8,21.8,51.8,50.7c0,28.9-23,50.7-51.8,50.7C297.9,313.9,274.9,292.1,274.9,263.2 M363.3,263.2
	c0-20.8-15.7-36.5-36.5-36.5c-20.8,0-36.5,15.7-36.5,36.5c0,20.8,15.7,36.5,36.5,36.5C347.6,299.7,363.3,284,363.3,263.2 M399,263.2
	c0-28.9,22.8-50.7,50.8-50.7c18.1,0,30.2,9,36.3,19.4h0.8v-51.6c0-4.5,3.1-7.7,7.9-7.7c4.9,0,7.9,3.1,7.9,7.7v83
	c0,28.9-23,50.5-51.8,50.5C422.2,313.9,399,292.1,399,263.2 M487.4,263.2c0-20.8-15.7-36.5-36.5-36.5c-20.8,0-36.5,15.7-36.5,36.5
	c0,20.8,15.7,36.5,36.5,36.5C471.6,299.7,487.4,284,487.4,263.2 M523.1,263.2c0-28.9,23.2-50.7,51.8-50.7
	c28.9,0,51.8,21.6,51.8,50.5v44.4c0,4.5-3.1,7.7-7.9,7.7c-4.9,0-7.9-3.1-7.9-7.7v-13h-0.8c-6.1,10.4-18.3,19.4-36.3,19.4
	C546.1,313.9,523.1,292.3,523.1,263.2 M611.4,263.2c0-20.8-15.7-36.5-36.5-36.5c-20.8,0-36.5,15.7-36.5,36.5
	c0,20.8,15.7,36.5,36.5,36.5C595.7,299.7,611.4,284,611.4,263.2"/>
</svg>
