<svg
    role="presentation" width="204" height="60" viewBox="0 0 204 60" fill="none">
    <path
        d="M21.5215 50.061C25.0115 48.9468 28.5015 47.6988 31.9915 46.3394C41.9148 42.2724 46.4984 34.5508 46.4984 23.7649C46.4984 11.6866 38.355 0.677834 23.9529 0.677834C8.77133 0.677834 0.5 12.3328 0.5 24.9794C0.5 37.4143 9.21339 47.3422 22.6732 47.3422L10.0394 51.699L11.2027 53.6266C13.2158 52.7615 15.3845 52.2772 17.5894 52.2003C24.2786 52.2003 29.3158 60 37.2847 60C42.7757 60 45.4281 56.3564 46.6845 52.3563C45.0326 54.0054 42.2522 54.7185 39.3903 54.7185C32.422 54.7074 27.4545 50.2727 21.5215 50.061ZM8.96909 24.1884C7.99189 12.968 13.3549 2.57206 21.4401 2.57206C31.4448 2.57206 37.0753 13.1127 38.0525 24.3331C38.5062 32.8348 35.8073 45.8157 25.5001 45.8157C14.7858 45.8157 9.42279 32.6232 8.96909 24.1884Z"
        fill="currentColor"></path>
    <path
        d="M82.0035 13.9707L73.9532 17.826C75.8378 20.0545 76.2101 23.1187 76.2101 25.5477V37.2027C73.1272 41.4145 69.7536 44.6235 65.5423 44.6235C58.0969 44.6235 58.4692 38.1275 58.4692 30.8403V14.2604L50.4306 18.1157C52.3152 20.3442 52.6874 23.4084 52.6874 25.8374V32.6231C52.6874 40.3448 53.1411 47.4871 62.5293 47.4871C68.4157 47.4871 72.7317 44.3672 76.2101 39.6874V47.8994L84.2604 44.1889C82.3758 41.9604 82.0035 38.8963 82.0035 36.4672V13.9707Z"
        fill="currentColor"></path>
    <path
        d="M93.217 7.653C93.7507 7.67912 94.2841 7.59696 94.7823 7.41184C95.2805 7.22673 95.7322 6.94282 96.1078 6.57881C96.4835 6.21481 96.7746 5.77894 96.9621 5.29965C97.1496 4.82037 97.2292 4.30851 97.1957 3.7977C97.2283 3.29015 97.1475 2.78179 96.9588 2.30649C96.7701 1.83119 96.4777 1.39993 96.1012 1.04141C95.7247 0.682893 95.2727 0.405394 94.7754 0.227424C94.278 0.0494536 93.7467 -0.0249058 93.217 0.00932261C92.683 -0.0273919 92.1469 0.0446001 91.6439 0.220623C91.141 0.396646 90.6826 0.67272 90.2991 1.0306C89.9156 1.38847 89.6155 1.82003 89.4187 2.29697C89.2218 2.77391 89.1326 3.28538 89.157 3.7977C89.1318 4.31326 89.2197 4.82817 89.4153 5.30911C89.6109 5.79004 89.9097 6.22632 90.2924 6.58969C90.675 6.95307 91.1331 7.23548 91.6369 7.41864C92.1407 7.60181 92.679 7.68163 93.217 7.653Z"
        fill="currentColor"></path>
    <path
        d="M96.6732 13.9707L88.5299 17.826C90.4145 20.0545 90.7868 22.9738 90.7868 25.5477V39.4089C90.7868 41.9827 90.4145 44.9132 88.5299 47.1305H98.9068C97.0222 44.9021 96.6499 41.9827 96.6499 39.4089L96.6732 13.9707Z"
        fill="currentColor"></path>
    <path
        d="M134.75 29.403C134.75 21.7593 134.598 13.8036 124.908 13.8036C119.393 13.8036 115.95 15.5641 111.227 21.9487V14.0153L103.084 17.8706C104.968 20.099 105.34 23.0183 105.34 25.5922V39.4089C105.34 41.9827 104.968 44.9132 103.084 47.1305H113.461C111.576 44.9021 111.204 41.9827 111.204 39.4089V24.556C115.531 18.0043 118.893 16.5446 121.732 16.5446C129.398 16.5446 128.863 23.6869 128.863 30.7623V39.4089C128.863 41.9827 128.491 44.9132 126.618 47.1305H136.983C135.11 44.9021 134.726 41.9827 134.726 39.4089L134.75 29.403Z"
        fill="currentColor"></path>
    <path
        d="M169.801 39.6206C168.949 41.11 167.706 42.3598 166.193 43.2454C164.681 44.131 162.952 44.6215 161.18 44.668H160.157C150.792 44.5789 145.964 36.133 145.964 28.0993C145.964 20.957 149.721 15.4415 156.562 15.4415C161.215 15.4415 164.705 17.5363 166.031 24.8792H166.764L169.417 17.4471C166.031 14.5947 161.518 13.6699 157.458 13.6699C145.359 13.6699 139.717 22.0267 139.717 30.3167C139.717 38.9632 145.813 47.4648 157.085 47.4648C158.973 47.5442 160.857 47.264 162.631 46.6405C164.404 46.0169 166.03 45.0624 167.416 43.8323C167.737 43.5794 168.025 43.2915 168.277 42.9744L168.37 42.8519C169.124 41.9839 169.776 41.0384 170.312 40.0328L169.801 39.6206Z"
        fill="currentColor"></path>
    <path
        d="M189.286 13.6922C179.665 13.6922 172.371 20.3776 172.371 30.6175C172.371 40.2668 178.909 47.4871 188.914 47.4871C195.114 47.4871 199.861 44.7126 203.025 38.718L203.223 38.4172L202.711 37.9826C202.711 37.9826 200.035 42.2836 196.313 43.8881C194.971 44.3397 193.558 44.5659 192.136 44.5566C183.016 44.5566 179.409 36.757 178.886 30.4169H203.49V29.6927C203.746 20.3331 198.86 13.6922 189.286 13.6922ZM178.816 26.116C179.572 19.542 183.109 15.5307 188.216 15.5307C189.388 15.5228 190.55 15.7409 191.632 16.1719C192.714 16.603 193.695 17.2382 194.515 18.0398C195.336 18.8413 195.98 19.7929 196.408 20.8377C196.837 21.8825 197.042 22.9993 197.011 24.1215C197.011 28.5785 193.625 28.5784 189.414 28.6899L178.746 28.8347C178.723 27.9099 178.723 26.9739 178.816 26.116Z"
        fill="currentColor"></path>
</svg>